<svg class="svg-symbol" fill="none" xmlns="http://www.w3.org/2000/svg">
<symbol id="arrow-down" viewBox="0 0 451.847 451.847"> <path d="M225.923 354.706c-8.098 0-16.195-3.092-22.369-9.263L9.27 151.157c-12.359-12.359-12.359-32.397 0-44.751 12.354-12.354 32.388-12.354 44.748 0l171.905 171.915 171.906-171.909c12.359-12.354 32.391-12.354 44.744 0 12.365 12.354 12.365 32.392 0 44.751L248.292 345.449c-6.177 6.172-14.274 9.257-22.369 9.257z"/> </symbol>
<symbol id="checked" viewBox="0 0 10 8"> <path d="M.604 4.346A.374.374 0 01.5 4.104c0-.07.035-.173.104-.242l.484-.485a.335.335 0 01.485 0l.035.035 1.904 2.042c.069.07.173.07.242 0L8.392.642h.035a.335.335 0 01.485 0l.484.485a.335.335 0 010 .485L3.858 7.358a.314.314 0 01-.243.104.314.314 0 01-.242-.104L.673 4.45l-.07-.104z"/> </symbol>
<symbol id="checkhover" viewBox="0 0 10 8"> <path d="M.604 4.346A.374.374 0 01.5 4.104c0-.07.035-.173.104-.242l.484-.485a.335.335 0 01.485 0l.035.035 1.904 2.042c.069.07.173.07.242 0L8.392.642h.035a.335.335 0 01.485 0l.484.485a.335.335 0 010 .485L3.858 7.358a.314.314 0 01-.243.104.314.314 0 01-.242-.104L.673 4.45l-.07-.104z" fill-opacity=".1"/> </symbol>
<symbol id="close" viewBox="0 0 17 17"> <path stroke-opacity=".7" stroke-width="2" stroke-linecap="round" d="M4.95 4.95l7.071 7.071M4.95 12.021l7.071-7.071"/> </symbol>
<symbol id="ellipse-1" viewBox="0 0 33 33"> <circle cx="16.5" cy="16.5" r="16.5" fill="#959DAB"/> </symbol>
<symbol id="ellipse-2" viewBox="0 0 33 33"> <circle cx="16.5" cy="16.5" r="16.5" fill="#959DAB"/> </symbol>
<symbol id="search" viewBox="0 0 17 17"> <path d="M15.823 15.347l-4.042-4.203a6.174 6.174 0 001.642-4.197A6.204 6.204 0 007.226.75a6.204 6.204 0 00-6.198 6.197 6.204 6.204 0 006.198 6.197 6.166 6.166 0 003.768-1.28l4.06 4.222.18-.173-.18.173a.531.531 0 00.754.015.533.533 0 00.015-.754zm-8.597-3.269a5.137 5.137 0 01-5.131-5.13 5.137 5.137 0 015.13-5.132 5.137 5.137 0 015.131 5.131 5.137 5.137 0 01-5.13 5.131z"/> </symbol>
</svg>